<svg width="72" height="60" viewBox="0 0 72 60" fill="none" xmlns="http://www.w3.org/2000/svg">
<path d="M11.8582 0.758156L11.8582 0.75815C12.1091 0.37718 12.5345 0.147977 12.9906 0.147977H59.064C59.5211 0.147977 59.9472 0.378259 60.198 0.760458L71.7278 18.3421C72.0619 18.8514 72.0153 19.5208 71.6142 19.9789L63.2933 29.4822C63.4902 28.935 63.3461 28.2994 62.882 27.8933C62.4181 27.487 61.7691 27.4281 61.2529 27.6954L67.5314 20.5246L67.604 20.4417H67.4938H48.5875H48.55L48.5395 20.4776L39.0355 52.9248L39.1211 52.9717L58.4368 30.9116C58.2398 31.4588 58.3839 32.0944 58.848 32.5006C59.1242 32.7426 59.4662 32.8613 59.8067 32.8613C60.0378 32.8613 60.2683 32.8065 60.4771 32.6984L37.0244 59.4832L37.062 59.5161L37.0243 59.4832C36.7669 59.7774 36.3952 59.9461 36.0043 59.9461C35.6136 59.9461 35.2416 59.7774 34.9842 59.4833L34.9466 59.5163L34.9842 59.4833L20.1075 42.4971C19.6141 41.9338 19.6707 41.0771 20.2341 40.5836C20.7974 40.0902 21.6542 40.1468 22.1476 40.7104L22.1853 40.6774L22.1476 40.7104L32.8879 52.9736L32.9735 52.9266L23.4691 20.4778L23.4585 20.4418H23.4211H4.50687H4.39662L4.46926 20.5248L8.27977 24.8759L8.31739 24.8429L8.27978 24.8759C8.77317 25.4391 8.71649 26.2958 8.1531 26.7894C7.58972 27.2828 6.73312 27.2261 6.23958 26.6626L0.386063 19.9791L0.348449 20.012L0.386059 19.9791C0.035333 19.5787 -0.0487512 19.0103 0.171094 18.5256C0.209516 18.4412 0.255498 18.3622 0.308484 18.2892L0.308525 18.2892L0.309765 18.2873L11.8582 0.758156ZM60.8196 32.3073C60.5521 32.6077 60.1804 32.7613 59.8067 32.7613C59.4895 32.7613 59.1712 32.6508 58.9139 32.4254L58.8809 32.463L58.9139 32.4253C58.3502 31.9321 58.2934 31.0753 58.7869 30.5118L60.9026 28.0954C61.3958 27.5318 62.2525 27.475 62.8162 27.9685L62.8491 27.9309L62.8162 27.9685C63.3798 28.4618 63.4366 29.3185 62.9431 29.882L60.8274 32.2984C60.8248 32.3014 60.8222 32.3043 60.8196 32.3073ZM3.9763 17.6521L3.92524 17.7296H4.01806H21.9168H22.0094L21.9586 17.6522L13.0296 4.03675L12.9879 3.97313L12.9461 4.03666L3.9763 17.6521ZM15.5942 2.86034H15.5016L15.5524 2.93776L24.4556 16.5138L24.4974 16.5776L24.5392 16.5138L33.4423 2.93776L33.4931 2.86034H33.4005H15.5942ZM36.046 4.04082L36.0042 3.97707L35.9624 4.04082L27.0362 17.6522L26.9854 17.7296H27.078H44.9304H45.023L44.9722 17.6522L36.046 4.04082ZM35.9562 53.4614L36.0042 53.6252L36.0522 53.4614L45.705 20.5059L45.7237 20.4418H45.657H26.3514H26.2847L26.3034 20.5059L35.9562 53.4614ZM47.4922 16.5491L47.534 16.6129L47.5758 16.5491L56.5023 2.93776L56.5531 2.86034H56.4605H38.6079H38.5153L38.5661 2.93776L47.4922 16.5491ZM50.0959 17.6522L50.0451 17.7296H50.1377H67.9901H68.0826L68.0319 17.6522L59.1058 4.04082L59.064 3.97707L59.0222 4.04082L50.0959 17.6522Z" fill="black" stroke="white" stroke-width="0.1"/>
</svg>
