<svg width="73" height="47" viewBox="0 0 73 47" fill="none" xmlns="http://www.w3.org/2000/svg">
<path d="M67.8897 19.9873L65.9993 12.4257C66.5161 12.3159 66.9039 11.8574 66.9039 11.308V10.0888C66.9039 7.44171 64.7503 5.28821 62.1033 5.28821H53.4927V2.77341C53.4927 1.47082 52.4331 0.411179 51.1305 0.411179H7.23898C5.93638 0.411179 4.87674 1.47082 4.87674 2.77341V23.5C4.87674 24.1312 5.38846 24.643 6.01979 24.643C6.65098 24.643 7.16284 24.1313 7.16284 23.5V2.77341C7.16284 2.73135 7.19692 2.69728 7.23898 2.69728H51.1304C51.1724 2.69728 51.2065 2.73135 51.2065 2.77341V23.5003C51.2065 24.1315 51.7182 24.6433 52.3496 24.6433C52.9807 24.6433 53.4926 24.1316 53.4926 23.5003V22.2045H66.9761C66.9772 22.2045 66.9781 22.2048 66.9791 22.2048C66.9802 22.2048 66.9812 22.2047 66.9822 22.2047C68.6414 22.2058 70.0502 23.2948 70.5341 24.7955H66.9799C66.3487 24.7955 65.8369 25.3072 65.8369 25.9385V28.3769C65.8369 30.3517 67.4434 31.9583 69.4183 31.9583H70.7138V36.9875H67.725C66.7432 34.1526 64.0484 32.1106 60.8839 32.1106C57.7193 32.1106 55.0243 34.1526 54.0427 36.9875H53.4923V28.3767C53.4923 27.7455 52.9806 27.2337 52.3493 27.2337C51.7181 27.2337 51.2062 27.7454 51.2062 28.3767V36.9872H27.4915C26.5097 34.1523 23.8148 32.1103 20.6503 32.1103C17.4858 32.1103 14.7908 34.1523 13.8091 36.9872H7.23898C7.19692 36.9872 7.16284 36.9531 7.16284 36.911V34.3964H12.1159C12.7471 34.3964 13.2589 33.8847 13.2589 33.2533C13.2589 32.622 12.7472 32.1103 12.1159 32.1103H1.14305C0.511855 32.1103 0 32.622 0 33.2533C0 33.8847 0.511713 34.3964 1.14305 34.3964H4.87688V36.911C4.87688 38.2136 5.93653 39.2733 7.23912 39.2733H13.4133C13.413 39.2987 13.4113 39.3239 13.4113 39.3494C13.4113 43.341 16.6588 46.5884 20.6503 46.5884C24.6418 46.5884 27.8893 43.341 27.8893 39.3494C27.8893 39.3237 27.8876 39.2987 27.8873 39.2733H53.6469C53.6466 39.2987 53.6449 39.3239 53.6449 39.3494C53.6449 43.341 56.8924 46.5884 60.8839 46.5884C64.8753 46.5884 68.1228 43.341 68.1228 39.3494C68.1228 39.3237 68.1211 39.2987 68.1208 39.2733H71.8568C72.488 39.2733 72.9999 38.7616 72.9999 38.1302V25.9382C73 22.9281 70.7791 20.4272 67.8897 19.9873ZM53.4927 7.57416H62.1033C63.4899 7.57416 64.618 8.70224 64.618 10.0888V10.1649H53.4927V7.57416ZM53.4927 19.9186V12.4509H63.6493L65.5162 19.9186H53.4927ZM20.6503 44.3027C17.9192 44.3027 15.6973 42.0809 15.6973 39.3497C15.6973 36.6185 17.9192 34.3967 20.6503 34.3967C23.3814 34.3967 25.6033 36.6185 25.6033 39.3497C25.6033 42.0809 23.3814 44.3027 20.6503 44.3027ZM60.8841 44.3027C58.1531 44.3027 55.9311 42.0809 55.9311 39.3497C55.9311 36.6185 58.1531 34.3967 60.8841 34.3967C63.6152 34.3967 65.8372 36.6185 65.8372 39.3497C65.8372 42.0809 63.6152 44.3027 60.8841 44.3027ZM70.714 29.6722H69.4186C68.7043 29.6722 68.1231 29.0911 68.1231 28.3767V27.0813H70.7139V29.6722H70.714Z" fill="white"/>
</svg>
