<svg width="73" height="61" viewBox="0 0 73 61" fill="none" xmlns="http://www.w3.org/2000/svg">
<path d="M71.8825 13.5937C71.0312 12.499 69.9365 11.8908 68.5986 11.7692L65.6795 11.4155V7.99866V5.56618C65.6795 2.8904 63.4902 0.70108 60.8144 0.70108H4.8651C2.18932 0.700938 0 2.89025 0 5.56618V7.9988V17.7291V44.4874C0 46.6843 1.47622 48.5522 3.48537 49.1508C3.42408 51.6112 5.28572 53.7472 7.78433 53.9744L63.9768 60.2991C64.0984 60.2991 64.3417 60.2991 64.4632 60.2991C66.8959 60.2991 69.0852 58.4746 69.3283 56.1637L72.9772 17.121C73.0988 15.9046 72.7339 14.5666 71.8825 13.5937ZM2.43262 9.21504H63.247V12.3774V16.5128H2.43262V9.21504ZM4.8651 3.13356H60.8142C62.1522 3.13356 63.2469 4.22822 63.2469 5.56618V6.78242H2.43262V5.56618C2.43262 4.22822 3.52728 3.13356 4.8651 3.13356ZM2.43262 44.4873V18.9452H63.247V44.4873C63.247 45.8252 62.1523 46.9199 60.8144 46.9199H4.98682H4.86524C3.52728 46.9199 2.43262 45.8252 2.43262 44.4873ZM70.5446 16.6343L66.8957 55.6771C66.7741 57.0151 65.5578 57.988 64.2199 57.8665L8.14907 51.5418C6.93283 51.4202 6.08134 50.4472 5.95976 49.3525H60.8142C63.49 49.3525 65.6793 47.1632 65.6793 44.4874V17.729V13.7153L68.4768 13.9586C69.085 13.9586 69.6931 14.3234 70.058 14.8099C70.423 15.2964 70.6663 16.0261 70.5446 16.6343Z" fill="black"/>
</svg>
